#!OML:ASF F:\VICON\USERDATA\INSTALL\rory3\rory3.ASF
:FULLY-SPECIFIED
:DEGREES
10
root 0.6092550000000001 18.183 -22.576699999999946 -3.7662400000000007 -0.5765809999999962 -4.94368
lfemur -11.872599999999991 2.256480000000007 -15.5266
ltibia 69.49790000000002
lfoot 2.7726199999999785 -8.253879999999992
ltoes -3.59564
rfemur -12.1759 4.34933 30.649399999999993
rtibia 27.14629999999999
rfoot -9.274299999999998 -4.400040000000002
rtoes 8.006649999999993
lowerback 1.0 -0.4751670000000031 3.006599999999999
upperback 0.49675399999999986 -0.09170700000000043 3.556859999999995
thorax -5.203110000000001 -0.07538109999999942 2.0399400000000028
lowerneck -15.655600000000002 -2.90738 -2.461780000000001
upperneck 21.7548 -3.4555800000000003 0.11520999999999837
head 9.50199 -1.80177 0.010729100000000047
lclavicle 2.112089999999994e-15 -1.9721522630525295e-31
lhumerus -30.2077 -0.3012119999999976 85.4143
lradius 28.105599999999995
lwrist 3.4328999999999987
lhand -28.439999999999998 22.485
lfingers 7.12502
lthumb -1.810869999999999 52.4571
rclavicle 2.112089999999994e-15 -1.9721522630525295e-31
rhumerus -30.026000000000003 -21.245700000000003 -75.16010000000001
rradius 21.1008
rwrist 9.791079999999996
rhand -15.480900000000002 1.0
rfingers 7.12502
rthumb 10.700899999999999 -11.325099999999996
11
root 0.598627 18.2267 -22.078199999999995 -3.5788399999999987 -1.218479999999998 -5.048459999999999
lfemur -15.67580000000001 2.855700000000006 -15.499899999999995
ltibia 69.84060000000002
lfoot 0.4666000000000059 -6.907869999999992
ltoes -3.8692699999999993
rfemur -10.562000000000001 5.126619999999999 31.098399999999994
rtibia 27.136000000000013
rfoot -10.4257 -4.4853599999999965
rtoes 7.8451200000000085
lowerback 1.0 0.16146699999999936 3.7051199999999964
upperback 0.9228030000000005 0.789851 2.9943199999999974
thorax -4.80092 0.3430609999999997 0.926816
lowerneck -17.731799999999996 -3.268559999999999 -1.4282900000000014
upperneck 22.4338 -4.14695 -0.10988900000000024
head 10.109600000000002 -2.0490800000000005 -0.37326199999999987
lclavicle -6.907769999999997e-15 -1.5902800000000022e-15
lhumerus -29.5431 -0.8429920000000009 84.9899
lradius 27.213500000000003
lwrist 4.865100000000001
lhand -28.925600000000003 20.418100000000006
lfingers 7.12502
lthumb -2.27983 50.3857
rclavicle -6.907769999999997e-15 -1.5902800000000022e-15
rhumerus -28.1191 -20.771600000000007 -76.9054
rradius 21.623999999999995
rwrist 8.730430000000007
rhand -16.5872 1.0
rfingers 7.12502
rthumb 9.63365 -15.305699999999998
12
root 0.5917700000000002 18.1661 -21.592300000000037 -3.5778599999999976 -1.8239100000000001 -5.0769099999999945
lfemur -18.883800000000015 2.9829500000000078 -15.57299999999999
ltibia 69.24370000000002
lfoot -3.199779999999998 -5.225829999999995
ltoes -5.095730000000002
rfemur -9.230450000000006 5.687180000000001 31.5355
rtibia 28.051199999999994
rfoot -12.026500000000002 -4.88295
rtoes 6.43234
lowerback 1.0 0.3231839999999999 3.5491400000000035
upperback 0.399444 1.0307 3.1495900000000008
thorax -5.449859999999999 0.45660699999999976 1.1437000000000002
lowerneck -15.132499999999999 -3.1060299999999996 -2.2134800000000006
upperneck 21.965 -3.83019 0.1900820000000013
head 9.47879 -1.9484300000000003 -0.045596499999999957
lclavicle 1.2461300000000004e-14 -2.3854200000000004e-15
lhumerus -31.647 0.04198389999999963 85.1762
lradius 26.809700000000003
lwrist 5.6034299999999995
lhand -26.5087 23.0007
lfingers 7.12502
lthumb 0.05447189999999924 52.9804
rclavicle 1.2461300000000004e-14 -2.3854200000000004e-15
rhumerus -28.1863 -17.171799999999998 -77.6371
rradius 23.0285
rwrist 6.764829999999999
rhand -16.442900000000005 1.0
rfingers 7.12502
rthumb 9.772890000000002 -17.29619999999998
13
root 0.5744590000000003 18.1209 -21.113200000000056 -3.3774600000000006 -2.15584 -5.72894
lfemur -22.482299999999988 2.8518699999999937 -14.831100000000001
ltibia 67.34169999999996
lfoot -5.62542 -3.790309999999994
ltoes -3.8607800000000005
rfemur -8.176010000000002 6.750850000000002 32.767499999999984
rtibia 28.986799999999985
rfoot -13.806300000000014 -7.417799999999998
rtoes 5.434380000000003
lowerback 1.0 0.46901799999999977 4.140099999999995
upperback -0.1195070000000013 1.3554200000000005 3.2084800000000016
thorax -6.231889999999996 0.5868789999999999 0.8234390000000001
lowerneck -13.480399999999996 -3.00077 -2.22374
upperneck 21.3215 -3.73167 0.2584809999999992
head 8.94847 -1.9039599999999999 0.025138800000000197
lclavicle -1.4567200000000004e-14 4.373260000000009e-15
lhumerus -33.92920000000001 -0.21311499999999983 85.2692
lradius 27.5203
lwrist 6.2262499999999985
lhand -26.4782 22.7472
lfingers 7.12502
lthumb 0.08391339999999925 52.727
rclavicle -1.4567200000000004e-14 4.373260000000009e-15
rhumerus -28.3483 -14.212400000000004 -78.7003
rradius 24.9282
rwrist 4.713379999999998
rhand -16.9175 1.0
rfingers 7.12502
rthumb 9.314910000000001 -17.71080000000002
14
root 0.575157 18.0652 -20.61979999999992 -3.015359999999999 -2.2583 -5.956129999999997
lfemur -25.3512 2.4016699999999913 -14.632699999999993
ltibia 63.93509999999998
lfoot -7.180069999999999 -1.9786499999999971
ltoes -3.9444599999999994
rfemur -7.043429999999996 7.000540000000001 33.299199999999985
rtibia 29.62750000000001
rfoot -16.701700000000017 -8.255580000000002
rtoes 1.304649999999996
lowerback 1.0 0.7903170000000003 4.855870000000005
upperback 0.21094299999999974 1.8184599999999986 2.8007599999999977
thorax -5.7578700000000005 0.7976619999999994 -0.07664930000000081
lowerneck -15.200600000000001 -3.2225299999999995 -1.7449699999999997
upperneck 21.566 -4.15022 0.38524000000000097
head 9.34861 -2.0364600000000004 -0.09351060000000008
lclavicle -1.8660899999999967e-14 -7.156250000000004e-15
lhumerus -33.66610000000001 -1.1064700000000003 85.1766
lradius 27.2768
lwrist 5.966010000000002
lhand -25.783600000000003 23.1674
lfingers 7.12502
lthumb 0.754719000000002 53.1458
rclavicle -1.8660899999999967e-14 -7.156250000000004e-15
rhumerus -26.657500000000002 -13.247699999999998 -79.945
rradius 26.2191
rwrist 3.101369999999997
rhand -18.5458 1.0
rfingers 7.12502
rthumb 7.743589999999999 -10.915500000000003
